<svg width="29" height="33" viewBox="0 0 29 33" fill="none" xmlns="http://www.w3.org/2000/svg">
<path d="M14.5 4C7.04416 4 1 9.59644 1 16.5C1 20.5342 3.06401 24.1221 6.26759 26.4076M19.3358 4.82587C24.403 6.62656 28 11.1743 28 16.5C28 23.4036 21.9558 29 14.5 29C13.2122 29 11.9665 28.833 10.7868 28.5212" stroke="#5E6174" stroke-width="2" stroke-linecap="round"/>
<path d="M16.1934 3.27907L13.8058 0.968034C13.5601 0.730189 13.1681 0.736572 12.9303 0.982292C12.6924 1.22801 12.6988 1.62002 12.9445 1.85787L14.8872 3.73825L13.0068 5.68089C12.7689 5.92661 12.7753 6.31861 13.021 6.55646C13.2667 6.7943 13.6588 6.78792 13.8966 6.5422L16.2076 4.15465C16.4455 3.90893 16.4391 3.51692 16.1934 3.27907Z" fill="#5E6174" stroke="#5E6174" stroke-width="0.5"/>
<path d="M9.16064 29.1342L11.2624 31.7079C11.4787 31.9728 11.8688 32.0122 12.1337 31.7959C12.3985 31.5796 12.4379 31.1895 12.2216 30.9246L10.5115 28.8305L12.6056 27.1204C12.8705 26.9041 12.9099 26.514 12.6935 26.2492C12.4772 25.9843 12.0872 25.9449 11.8223 26.1612L9.24859 28.263C8.98371 28.4793 8.94434 28.8694 9.16064 29.1342Z" fill="#5E6174" stroke="#5E6174" stroke-width="0.5"/>
<path d="M21.4811 14H8.50019C7.07293 14 6.10503 15.452 6.65413 16.7695L8.73817 21.7695C9.04876 22.5146 9.77691 23 10.5842 23H19.3299C20.1289 23 20.8512 22.5244 21.167 21.7904L23.3183 16.7904C23.8862 15.4704 22.9182 14 21.4811 14Z" stroke="#5E6174" stroke-width="2"/>
<path d="M11 10L15 14" stroke="#5E6174" stroke-width="2" stroke-linecap="round"/>
<path d="M20 10L15 14" stroke="#5E6174" stroke-width="2" stroke-linecap="round"/>
</svg>
