<svg width="23" height="29" viewBox="0 0 23 29" fill="none" xmlns="http://www.w3.org/2000/svg">
<path d="M17.25 16.9167C17.25 17.2371 17.1288 17.5445 16.9132 17.7711C16.6975 17.9977 16.405 18.125 16.1 18.125H6.89999C6.59499 18.125 6.30249 17.9977 6.08682 17.7711C5.87115 17.5445 5.74999 17.2371 5.74999 16.9167C5.74999 16.5962 5.87115 16.2889 6.08682 16.0623C6.30249 15.8357 6.59499 15.7083 6.89999 15.7083H16.1C16.405 15.7083 16.6975 15.8357 16.9132 16.0623C17.1288 16.2889 17.25 16.5962 17.25 16.9167ZM12.65 20.5417H6.89999C6.59499 20.5417 6.30249 20.669 6.08682 20.8956C5.87115 21.1222 5.74999 21.4295 5.74999 21.75C5.74999 22.0705 5.87115 22.3778 6.08682 22.6044C6.30249 22.831 6.59499 22.9583 6.89999 22.9583H12.65C12.955 22.9583 13.2475 22.831 13.4632 22.6044C13.6788 22.3778 13.8 22.0705 13.8 21.75C13.8 21.4295 13.6788 21.1222 13.4632 20.8956C13.2475 20.669 12.955 20.5417 12.65 20.5417ZM23 12.6694V22.9583C22.9981 24.5601 22.3918 26.0957 21.3138 27.2283C20.2359 28.3609 18.7744 28.9981 17.25 29H5.74999C4.22556 28.9981 2.76409 28.3609 1.68615 27.2283C0.608213 26.0957 0.00182603 24.5601 0 22.9583V6.04169C0.00182603 4.43993 0.608213 2.90432 1.68615 1.77171C2.76409 0.639093 4.22556 0.00194651 5.74999 2.78505e-05H10.9422C11.9998 -0.00283218 13.0474 0.214613 14.0245 0.63979C15.0016 1.06497 15.8888 1.68944 16.6347 2.47711L20.6413 6.68935C21.3914 7.47264 21.9861 8.40453 22.391 9.43103C22.7958 10.4575 23.0028 11.5582 23 12.6694ZM15.0086 4.18569C14.6467 3.81734 14.2404 3.50047 13.8 3.24319V8.45835C13.8 8.77882 13.9211 9.08617 14.1368 9.31277C14.3525 9.53938 14.645 9.66669 14.95 9.66669H19.9134C19.6684 9.20412 19.3664 8.77753 19.0152 8.39794L15.0086 4.18569ZM20.7 12.6694C20.7 12.47 20.6632 12.2791 20.6459 12.0833H14.95C14.035 12.0833 13.1575 11.7014 12.5105 11.0216C11.8635 10.3418 11.5 9.41976 11.5 8.45835V2.47348C11.3137 2.45536 11.1308 2.41669 10.9422 2.41669H5.74999C4.835 2.41669 3.95748 2.79861 3.31048 3.47843C2.66348 4.15825 2.3 5.08028 2.3 6.04169V22.9583C2.3 23.9197 2.66348 24.8418 3.31048 25.5216C3.95748 26.2014 4.835 26.5833 5.74999 26.5833H17.25C18.165 26.5833 19.0425 26.2014 19.6895 25.5216C20.3365 24.8418 20.7 23.9197 20.7 22.9583V12.6694Z" fill="#5E6174"/>
</svg>
