<svg width="20" height="20" viewBox="0 0 20 20" fill="none" xmlns="http://www.w3.org/2000/svg">
<path d="M9.16667 20.0002V17.5002C9.16667 16.1427 8.08333 15.0443 6.735 15.0068L4.58333 17.5002L2.39917 15.0102C1.06583 15.0643 0 16.1535 0 17.5002V20.0002M20 20.0002V17.5002C20 16.1427 18.9167 15.0443 17.5683 15.0068L15.4167 17.5002L13.2325 15.0102C11.8992 15.0643 10.8333 16.1535 10.8333 17.5002V20.0002" fill="white"/>
<path d="M12.1375 10.2904C12.1375 12.1287 13.6325 13.6237 15.4709 13.6237C17.3092 13.6237 18.8042 12.1287 18.8042 10.2904C18.8042 8.45203 17.3092 6.95703 15.4709 6.95703C13.6325 6.95703 12.1375 8.45203 12.1375 10.2904Z" fill="#34B1E2"/>
<path d="M1.3042 10.2904C1.3042 12.1287 2.7992 13.6237 4.63753 13.6237C6.47587 13.6237 7.97087 12.1287 7.97087 10.2904C7.97087 8.45203 6.47587 6.95703 4.63753 6.95703C2.7992 6.95703 1.3042 8.45203 1.3042 10.2904Z" fill="#34B1E2"/>
<path d="M6.52197 3.33333C6.52197 5.17167 8.01697 6.66667 9.85531 6.66667C11.6936 6.66667 13.1886 5.17167 13.1886 3.33333C13.1886 1.495 11.6936 0 9.85531 0C8.01697 0 6.52197 1.495 6.52197 3.33333Z" fill="white"/>
</svg>
