<svg width="20" height="20" viewBox="0 0 20 20" fill="none" xmlns="http://www.w3.org/2000/svg">
<g clip-path="url(#clip0_3_1628)">
<path d="M12.0833 5.83333C10.475 5.83333 9.16663 4.525 9.16663 2.91667C9.16663 1.30833 10.475 0 12.0833 0C13.6916 0 15 1.30833 15 2.91667C15 4.525 13.6916 5.83333 12.0833 5.83333ZM4.5833 5.83333C2.97497 5.83333 1.66663 4.525 1.66663 2.91667C1.66663 1.30833 2.97497 0 4.5833 0C6.19163 0 7.49997 1.30833 7.49997 2.91667C7.49997 4.525 6.19163 5.83333 4.5833 5.83333ZM18.0691 14.76L15.8166 16.9383C15.44 17.31 14.94 17.4975 14.4391 17.4975C13.9383 17.4975 13.4366 17.31 13.0533 16.9358L11.925 15.8258C11.5958 15.5033 11.5916 14.9758 11.9133 14.6475C12.235 14.3183 12.7625 14.3133 13.0916 14.6358L14.22 15.745C14.34 15.8633 14.5366 15.8608 14.655 15.7433L16.9158 13.5567C17.2466 13.2392 17.775 13.2483 18.0941 13.5808C18.4125 13.9125 18.4016 14.44 18.07 14.7592L18.0691 14.76ZM3.74997 9.58333C3.74997 8.47917 4.14247 7.465 4.79497 6.67333C4.71747 6.66917 4.63913 6.66667 4.5608 6.66667C2.2208 6.66667 0.262465 8.41917 0.00496496 10.7417C-0.0208684 10.9775 0.054965 11.2125 0.212465 11.3892C0.369965 11.5658 0.596632 11.6667 0.833298 11.6667H4.25163C3.9308 11.0417 3.74997 10.3333 3.74997 9.58333ZM8.3333 12.5C8.50497 12.5 8.67247 12.485 8.8358 12.4567C9.3358 11.2475 10.18 10.2175 11.2475 9.48917C11.1975 7.925 9.90913 6.6675 8.33247 6.6675C6.72413 6.6675 5.4158 7.97583 5.4158 9.58417C5.4158 11.1925 6.72413 12.5008 8.33247 12.5008L8.3333 12.5ZM8.3333 15C8.3333 14.4408 8.40247 13.8975 8.53247 13.3783C8.3233 13.3492 8.1108 13.3333 7.89413 13.3333C5.55413 13.3333 3.5958 15.0858 3.3383 17.4083C3.31247 17.6442 3.3883 17.8792 3.5458 18.0558C3.7033 18.2325 3.92997 18.3333 4.16663 18.3333H9.22497C8.65746 17.3525 8.3333 16.2142 8.3333 15Z" fill="white"/>
<path d="M15 10C12.2383 10 10 12.2383 10 15C10 17.7617 12.2383 20 15 20C17.7617 20 20 17.7617 20 15C20 12.2383 17.7617 10 15 10ZM18.0692 14.76L15.8167 16.9383C15.44 17.31 14.94 17.4975 14.4392 17.4975C13.9383 17.4975 13.4367 17.31 13.0533 16.9358L11.925 15.8258C11.5958 15.5033 11.5917 14.9758 11.9133 14.6475C12.235 14.3183 12.7625 14.3133 13.0917 14.6358L14.22 15.745C14.34 15.8633 14.5367 15.8608 14.655 15.7433L16.9158 13.5567C17.2467 13.2392 17.775 13.2483 18.0942 13.5808C18.4125 13.9125 18.4017 14.44 18.07 14.7592L18.0692 14.76Z" fill="#34B1E2"/>
</g>
<defs>
<clipPath id="clip0_3_1628">
<rect width="20" height="20" fill="white"/>
</clipPath>
</defs>
</svg>
