<svg width="20" height="24" viewBox="0 0 20 24" fill="none" xmlns="http://www.w3.org/2000/svg">
<path d="M20 8.15701V18.5C19.9984 19.9582 19.4184 21.3562 18.3873 22.3873C17.3562 23.4184 15.9582 23.9984 14.5 24H5.49999C4.04179 23.9984 2.64377 23.4184 1.61267 22.3873C0.58156 21.3562 0.00158817 19.9582 0 18.5V5.50002C0.00158817 4.04182 0.58156 2.64379 1.61267 1.61269C2.64377 0.581582 4.04179 0.00161038 5.49999 2.22109e-05H11.843C12.5656 -0.00203834 13.2814 0.139292 13.9489 0.415826C14.6165 0.692361 15.2225 1.0986 15.732 1.61102L18.389 4.26802C18.9013 4.77753 19.3075 5.3836 19.584 6.05115C19.8605 6.7187 20.0019 7.43446 20 8.15701ZM17 18.5V9.00001H13C12.4696 9.00001 11.9608 8.7893 11.5858 8.41423C11.2107 8.03915 11 7.53045 11 7.00002V3.00002H5.49999C4.83695 3.00002 4.20107 3.26341 3.73223 3.73225C3.26339 4.20109 3 4.83698 3 5.50002V18.5C3 19.163 3.26339 19.7989 3.73223 20.2678C4.20107 20.7366 4.83695 21 5.49999 21H14.5C15.163 21 15.7989 20.7366 16.2678 20.2678C16.7366 19.7989 17 19.163 17 18.5Z" fill="white"/>
<path d="M14.5606 13.5607C14.842 13.2794 15 12.8978 15 12.5C15 12.1022 14.842 11.7206 14.5606 11.4393C14.2793 11.158 13.8978 11 13.5 11H6.5C6.10217 11 5.72064 11.158 5.43934 11.4393C5.15803 11.7206 5 12.1022 5 12.5C5 12.8978 5.15803 13.2794 5.43934 13.5607C5.72064 13.842 6.10217 14 6.5 14H13.5C13.8978 14 14.2793 13.842 14.5606 13.5607Z" fill="#34B1E2"/>
<path d="M6.5 16H10.5C10.8978 16 11.2793 16.158 11.5607 16.4393C11.842 16.7206 12 17.1022 12 17.5C12 17.8978 11.842 18.2793 11.5607 18.5607C11.2793 18.842 10.8978 19 10.5 19H6.5C6.10217 19 5.72064 18.842 5.43934 18.5607C5.15803 18.2793 5 17.8978 5 17.5C5 17.1022 5.15803 16.7206 5.43934 16.4393C5.72064 16.158 6.10217 16 6.5 16Z" fill="#34B1E2"/>
</svg>
