<svg width="20" height="20" viewBox="0 0 20 20" fill="none" xmlns="http://www.w3.org/2000/svg">
<path d="M3.33332 0H5.83333C7.67427 0 9.16665 1.49238 9.16665 3.33332V5.83333C9.16665 7.67427 7.67427 9.16665 5.83333 9.16665H3.33332C1.49238 9.16669 0 7.67431 0 5.83333V3.33332C0 1.49238 1.49238 0 3.33332 0Z" fill="white"/>
<path d="M14.1667 0H16.6667C18.5076 0 20 1.49238 20 3.33332V5.83333C20 7.67427 18.5076 9.16665 16.6667 9.16665H14.1667C12.3258 9.16665 10.8334 7.67427 10.8334 5.83333V3.33332C10.8333 1.49238 12.3257 0 14.1667 0Z" fill="white"/>
<path d="M3.33332 10.834H5.83333C7.67427 10.834 9.16665 12.3264 9.16665 14.1673V16.6673C9.16665 18.5083 7.67427 20.0006 5.83333 20.0006H3.33332C1.49238 20.0007 0 18.5083 0 16.6674V14.1673C0 12.3264 1.49238 10.834 3.33332 10.834Z" fill="white"/>
<path d="M14.1666 10.834H16.6666C18.5075 10.834 19.9999 12.3264 19.9999 14.1673V16.6673C19.9999 18.5083 18.5075 20.0007 16.6666 20.0007H14.1666C12.3256 20.0007 10.8333 18.5083 10.8333 16.6674V14.1673C10.8332 12.3264 12.3256 10.834 14.1666 10.834Z" fill="white"/>
</svg>
