<svg width="20" height="20" viewBox="0 0 20 20" fill="none" xmlns="http://www.w3.org/2000/svg">
<path d="M15.8296 0.000183105H4.16391C1.86288 0.000183105 -0.00244141 1.8655 -0.00244141 4.16649C-0.00244141 5.54708 1.11677 6.66629 2.49736 6.66629H17.4962C18.8122 6.68235 19.9105 5.66563 19.996 4.3523C20.0963 2.05119 18.3122 0.104433 16.0111 0.0041281C15.9506 0.00147206 15.8901 0.000183105 15.8296 0.000183105Z" fill="#34B1E2"/>
<path d="M18.3296 8.33319H1.66431C1.20411 8.33319 0.831055 8.70625 0.831055 9.16645V15.8326C0.833789 18.1325 2.69751 19.9962 4.99736 19.9989H14.9966C17.2964 19.9962 19.1601 18.1325 19.1629 15.8326V9.16645C19.1629 8.70625 18.7898 8.33319 18.3296 8.33319ZM12.4968 12.4995H7.49716C7.03697 12.4995 6.66391 12.1265 6.66391 11.6663C6.66391 11.2061 7.03697 10.833 7.49716 10.833H12.4968C12.957 10.833 13.33 11.2061 13.33 11.6663C13.33 12.1265 12.957 12.4995 12.4968 12.4995Z" fill="white"/>
</svg>
