<svg width="20" height="20" viewBox="0 0 20 20" fill="none" xmlns="http://www.w3.org/2000/svg">
<g clip-path="url(#clip0_3_1618)">
<path d="M3.50981e-05 6.68333C3.50981e-05 6.67417 3.50981e-05 6.665 3.50981e-05 6.65583C0.0108684 6.58083 0.0208684 6.5125 0.0325351 6.4375L1.00754 3.0225C1.51837 1.23333 3.15337 0 5.0142 0H5.83337V3.33333C5.83337 3.79333 6.2067 4.16667 6.6667 4.16667C7.1267 4.16667 7.50004 3.79333 7.50004 3.33333V0H12.5V3.33333C12.5 3.79333 12.8725 4.16667 13.3334 4.16667C13.7942 4.16667 14.1667 3.79333 14.1667 3.33333V0H14.985C16.845 0 18.48 1.23333 18.9917 3.02167L19.9675 6.435C19.9784 6.50667 19.9892 6.57917 20 6.65083C20.005 7.78333 19.4425 8.78083 18.5834 9.3875C17.5475 8.72333 16.3192 8.33333 15 8.33333C13.3159 8.33333 11.78 8.96583 10.605 10H9.1667C8.1667 10 7.27837 9.54833 6.6667 8.84833C6.05504 9.54833 5.1667 10 4.1667 10H3.29504C1.46837 10 -0.00829824 8.50917 3.50981e-05 6.68333ZM10.605 20H4.1667C2.32587 20 0.833368 18.5075 0.833368 16.6667V11.0083C1.57504 11.435 2.4167 11.6667 3.29504 11.6667H4.1667C5.0517 11.6667 5.91254 11.4267 6.6667 10.985C7.42087 11.4267 8.2817 11.6667 9.1667 11.6667H9.23503C8.66504 12.6483 8.33337 13.785 8.33337 15C8.33337 16.9917 9.21587 18.7775 10.605 20Z" fill="white"/>
<path d="M15 10C12.2383 10 10 12.2383 10 15C10 17.7617 12.2383 20 15 20C17.7617 20 20 17.7617 20 15C20 12.2383 17.7617 10 15 10ZM18.0692 14.76L15.8167 16.9383C15.44 17.31 14.94 17.4975 14.4392 17.4975C13.9383 17.4975 13.4367 17.31 13.0533 16.9358L11.925 15.8258C11.5958 15.5033 11.5917 14.9758 11.9133 14.6475C12.235 14.3183 12.7625 14.3133 13.0917 14.6358L14.22 15.745C14.34 15.8633 14.5367 15.8608 14.655 15.7433L16.9158 13.5567C17.2467 13.2392 17.775 13.2483 18.0942 13.5808C18.4125 13.9125 18.4017 14.44 18.07 14.7592L18.0692 14.76Z" fill="#34B1E2"/>
</g>
<defs>
<clipPath id="clip0_3_1618">
<rect width="20" height="20" fill="white"/>
</clipPath>
</defs>
</svg>
