<svg width="16" height="16" viewBox="0 0 16 16" fill="none" xmlns="http://www.w3.org/2000/svg">
<path opacity="0.3" d="M15.3333 16H0.666667C0.3 16 0 15.7001 0 15.3336C0 14.9671 0.3 14.6672 0.666667 14.6672H15.3333C15.7 14.6672 16 14.9671 16 15.3336C16 15.7001 15.7 16 15.3333 16ZM9.84667 12.5748L14.08 8.07663C14.66 7.49688 14.8267 6.67055 14.5133 5.91753C14.2 5.16451 13.5 4.69138 12.68 4.68471H11.3333V1.99917C11.34 0.886297 10.4267 0 9.32 0H6.66667C5.56 0 4.66667 0.892961 4.66667 1.99917V4.66472H3.42C2.64 4.66472 1.88667 5.07122 1.54667 5.77093C1.16667 6.55727 1.32 7.44357 1.90667 8.03665L6.1 12.5681C6.61333 13.0812 7.29333 13.3411 7.97333 13.3411C8.65333 13.3411 9.32667 13.0812 9.84667 12.5681V12.5748Z" fill="black"/>
</svg>
