<svg width="193" height="38" viewBox="0 0 193 38" fill="none" xmlns="http://www.w3.org/2000/svg">
<path fill-rule="evenodd" clip-rule="evenodd" d="M0 1H20.8115V10.6053H0V1ZM10.4058 13.0079H20.8115V21.8128H10.4058L10.4058 33.8194H6.20328e-05L6.25576e-05 21.8128H0V13.0079H6.29425e-05H10.4058Z" fill="url(#paint0_linear_13_7587)"/>
<path d="M44.1519 2.98945V6.19253H37.4652V9.6528H42.4685V12.7624H37.4652V19.4023H33.4672V2.98945H44.1519ZM48.2639 5.00014C47.5625 5.00014 46.9858 4.79752 46.5338 4.39226C46.0973 3.97142 45.8791 3.45705 45.8791 2.84917C45.8791 2.22569 46.0973 1.71133 46.5338 1.30607C46.9858 0.885229 47.5625 0.674807 48.2639 0.674807C48.9497 0.674807 49.5108 0.885229 49.9473 1.30607C50.3993 1.71133 50.6253 2.22569 50.6253 2.84917C50.6253 3.45705 50.3993 3.97142 49.9473 4.39226C49.5108 4.79752 48.9497 5.00014 48.2639 5.00014ZM50.2512 6.3562V19.4023H46.2532V6.3562H50.2512ZM65.4465 12.6688C65.4465 13.0429 65.4231 13.4326 65.3764 13.8379H56.3282C56.3906 14.6484 56.6478 15.2718 57.0998 15.7083C57.5674 16.1291 58.1363 16.3395 58.8065 16.3395C59.8041 16.3395 60.4977 15.9187 60.8874 15.077H65.1426C64.9243 15.9343 64.5269 16.7058 63.9502 17.3916C63.389 18.0775 62.6799 18.6152 61.8226 19.0049C60.9653 19.3946 60.0067 19.5894 58.9468 19.5894C57.6687 19.5894 56.5309 19.3166 55.5333 18.7711C54.5357 18.2255 53.7564 17.4462 53.1953 16.4331C52.6342 15.4199 52.3536 14.2353 52.3536 12.8793C52.3536 11.5232 52.6264 10.3386 53.1719 9.32548C53.733 8.31234 54.5124 7.533 55.5099 6.98746C56.5075 6.44192 57.6531 6.16915 58.9468 6.16915C60.2093 6.16915 61.3316 6.43413 62.3136 6.96408C63.2955 7.49403 64.0593 8.24999 64.6048 9.23196C65.1659 10.2139 65.4465 11.3596 65.4465 12.6688ZM61.355 11.6167C61.355 10.9309 61.1212 10.3854 60.6536 9.98013C60.186 9.57487 59.6015 9.37224 58.9001 9.37224C58.2298 9.37224 57.6609 9.56708 57.1933 9.95675C56.7413 10.3464 56.4607 10.8997 56.3516 11.6167H61.355ZM71.5537 2.101V19.4023H67.5557V2.101H71.5537ZM73.6561 12.8559C73.6561 11.5154 73.9054 10.3386 74.4042 9.32548C74.9186 8.31234 75.6122 7.533 76.4851 6.98746C77.3579 6.44192 78.3321 6.16915 79.4076 6.16915C80.2649 6.16915 81.0442 6.3484 81.7456 6.7069C82.4626 7.06539 83.0237 7.54858 83.429 8.15647V2.101H87.427V19.4023H83.429V17.5319C83.0549 18.1554 82.5172 18.6542 81.8157 19.0283C81.1299 19.4023 80.3272 19.5894 79.4076 19.5894C78.3321 19.5894 77.3579 19.3166 76.4851 18.7711C75.6122 18.21 74.9186 17.4228 74.4042 16.4097C73.9054 15.381 73.6561 14.1964 73.6561 12.8559ZM83.429 12.8793C83.429 11.8817 83.1484 11.0946 82.5873 10.5179C82.0418 9.94116 81.3715 9.6528 80.5766 9.6528C79.7817 9.6528 79.1036 9.94116 78.5425 10.5179C77.997 11.079 77.7242 11.8583 77.7242 12.8559C77.7242 13.8534 77.997 14.6484 78.5425 15.2407C79.1036 15.8174 79.7817 16.1057 80.5766 16.1057C81.3715 16.1057 82.0418 15.8174 82.5873 15.2407C83.1484 14.664 83.429 13.8768 83.429 12.8793ZM99.461 19.4023L92.3768 11.8505V19.4023H90.7402V3.05959H92.3768V10.7049L99.461 3.05959H101.542L93.8965 11.2193L101.612 19.4023H99.461ZM109.616 19.5894C108.416 19.5894 107.333 19.3244 106.367 18.7945C105.416 18.2489 104.66 17.4852 104.099 16.5032C103.553 15.5056 103.28 14.3444 103.28 13.0196C103.28 11.6947 103.561 10.5412 104.122 9.55928C104.683 8.56173 105.447 7.79797 106.413 7.26802C107.38 6.72248 108.463 6.44972 109.663 6.44972C110.863 6.44972 111.947 6.72248 112.913 7.26802C113.895 7.79797 114.659 8.56173 115.204 9.55928C115.765 10.5412 116.046 11.6947 116.046 13.0196C116.046 14.3288 115.765 15.4823 115.204 16.4798C114.643 17.4774 113.872 18.2489 112.89 18.7945C111.908 19.3244 110.817 19.5894 109.616 19.5894ZM109.616 18.1632C110.458 18.1632 111.237 17.9762 111.954 17.6021C112.671 17.2124 113.248 16.6357 113.685 15.8719C114.137 15.0926 114.363 14.1418 114.363 13.0196C114.363 11.8973 114.144 10.9543 113.708 10.1905C113.272 9.41121 112.695 8.8345 111.978 8.46041C111.261 8.07074 110.482 7.87591 109.64 7.87591C108.798 7.87591 108.019 8.07074 107.302 8.46041C106.585 8.8345 106.008 9.41121 105.572 10.1905C105.151 10.9543 104.94 11.8973 104.94 13.0196C104.94 14.1418 105.151 15.0926 105.572 15.8719C106.008 16.6357 106.577 17.2124 107.278 17.6021C107.995 17.9762 108.775 18.1632 109.616 18.1632ZM125.015 6.40295C126.542 6.40295 127.789 6.87835 128.756 7.82915C129.722 8.76435 130.205 10.1282 130.205 11.9207V19.4023H128.592V12.1077C128.592 10.7205 128.241 9.6606 127.54 8.92802C126.854 8.19544 125.911 7.82915 124.711 7.82915C123.479 7.82915 122.497 8.21882 121.765 8.99816C121.032 9.7775 120.666 10.9231 120.666 12.435V19.4023H119.029V6.63676H120.666V8.81112C121.071 8.03178 121.656 7.43948 122.419 7.03422C123.183 6.61338 124.048 6.40295 125.015 6.40295ZM139.81 6.40295C141.337 6.40295 142.584 6.87835 143.551 7.82915C144.517 8.76435 145 10.1282 145 11.9207V19.4023H143.387V12.1077C143.387 10.7205 143.036 9.6606 142.335 8.92802C141.649 8.19544 140.706 7.82915 139.506 7.82915C138.275 7.82915 137.293 8.21882 136.56 8.99816C135.828 9.7775 135.461 10.9231 135.461 12.435V19.4023H133.825V6.63676H135.461V8.81112C135.866 8.03178 136.451 7.43948 137.215 7.03422C137.979 6.61338 138.844 6.40295 139.81 6.40295ZM160.17 12.3649C160.17 12.926 160.154 13.3547 160.123 13.6508H149.532C149.578 14.6172 149.812 15.4433 150.233 16.1291C150.654 16.8149 151.207 17.3371 151.893 17.6956C152.579 18.0385 153.327 18.21 154.138 18.21C155.198 18.21 156.086 17.9528 156.803 17.4384C157.536 16.924 158.019 16.2304 158.253 15.3576H159.983C159.671 16.6045 159.001 17.6254 157.972 18.4204C156.959 19.1997 155.681 19.5894 154.138 19.5894C152.937 19.5894 151.862 19.3244 150.911 18.7945C149.96 18.2489 149.212 17.4852 148.667 16.5032C148.137 15.5056 147.872 14.3444 147.872 13.0196C147.872 11.6947 148.137 10.5335 148.667 9.5359C149.197 8.53835 149.937 7.77459 150.888 7.24464C151.839 6.71469 152.922 6.44972 154.138 6.44972C155.353 6.44972 156.413 6.71469 157.317 7.24464C158.237 7.77459 158.938 8.49159 159.422 9.39562C159.92 10.2841 160.17 11.2738 160.17 12.3649ZM158.51 12.3181C158.525 11.3674 158.33 10.5568 157.925 9.8866C157.536 9.21637 156.998 8.7098 156.312 8.36689C155.626 8.02398 154.878 7.85253 154.067 7.85253C152.852 7.85253 151.815 8.2422 150.958 9.02154C150.101 9.80088 149.625 10.8997 149.532 12.3181H158.51ZM162.416 13.0196C162.416 11.6947 162.681 10.5412 163.211 9.55928C163.741 8.56173 164.473 7.79797 165.409 7.26802C166.344 6.72248 167.411 6.44972 168.612 6.44972C170.186 6.44972 171.48 6.83939 172.493 7.61873C173.521 8.39807 174.184 9.45797 174.48 10.7984H172.727C172.508 9.87881 172.033 9.16182 171.3 8.64745C170.583 8.1175 169.687 7.85253 168.612 7.85253C167.754 7.85253 166.983 8.04736 166.297 8.43703C165.611 8.8267 165.066 9.41121 164.66 10.1905C164.271 10.9543 164.076 11.8973 164.076 13.0196C164.076 14.1418 164.271 15.0926 164.66 15.8719C165.066 16.6513 165.611 17.2358 166.297 17.6254C166.983 18.0151 167.754 18.21 168.612 18.21C169.687 18.21 170.583 17.9528 171.3 17.4384C172.033 16.9085 172.508 16.1759 172.727 15.2407H174.48C174.184 16.55 173.521 17.6021 172.493 18.397C171.464 19.1919 170.17 19.5894 168.612 19.5894C167.411 19.5894 166.344 19.3244 165.409 18.7945C164.473 18.2489 163.741 17.4852 163.211 16.5032C162.681 15.5056 162.416 14.3444 162.416 13.0196ZM179.63 8.01619V15.9421C179.63 16.7214 179.778 17.2592 180.074 17.5553C180.371 17.8515 180.893 17.9995 181.641 17.9995H183.137V19.4023H181.384C180.23 19.4023 179.373 19.1374 178.812 18.6074C178.251 18.0619 177.97 17.1734 177.97 15.9421V8.01619H176.193V6.63676H177.97V3.43367H179.63V6.63676H183.137V8.01619H179.63Z" fill="url(#paint1_linear_13_7587)"/>
<path d="M35.6575 34.1009C35.0841 34.1009 34.5771 34.0012 34.1367 33.8018C33.7046 33.6023 33.3638 33.3239 33.1145 32.9666C32.8652 32.6092 32.7323 32.2104 32.7156 31.7699H33.6381C33.6796 32.1937 33.8666 32.5677 34.199 32.8918C34.5314 33.2076 35.0176 33.3655 35.6575 33.3655C36.2475 33.3655 36.7129 33.2159 37.0536 32.9167C37.4026 32.6092 37.5771 32.2228 37.5771 31.7574C37.5771 31.3835 37.4816 31.0843 37.2904 30.8599C37.0993 30.6273 36.8624 30.4569 36.5799 30.3489C36.2974 30.2325 35.9068 30.1079 35.4082 29.9749C34.8264 29.817 34.3652 29.6633 34.0245 29.5137C33.6838 29.3641 33.3929 29.1314 33.1519 28.8156C32.9109 28.4998 32.7904 28.0719 32.7904 27.5317C32.7904 27.0829 32.9068 26.684 33.1395 26.335C33.3721 25.9777 33.7004 25.6993 34.1242 25.4998C34.548 25.3004 35.0342 25.2007 35.5827 25.2007C36.3888 25.2007 37.037 25.4001 37.5273 25.799C38.0259 26.1896 38.3126 26.6965 38.3874 27.3198H37.44C37.3818 26.9624 37.1865 26.6466 36.8541 26.3724C36.5217 26.0899 36.073 25.9486 35.5079 25.9486C34.9843 25.9486 34.548 26.0899 34.199 26.3724C33.85 26.6466 33.6755 27.0248 33.6755 27.5068C33.6755 27.8724 33.771 28.1674 33.9622 28.3918C34.1533 28.6162 34.3902 28.7865 34.6727 28.9029C34.9636 29.0192 35.3541 29.1439 35.8444 29.2768C36.4095 29.4347 36.8666 29.5926 37.2156 29.7505C37.5647 29.9001 37.8597 30.1328 38.1007 30.4486C38.3417 30.7644 38.4622 31.1882 38.4622 31.72C38.4622 32.1272 38.3541 32.5137 38.1381 32.8793C37.922 33.245 37.6021 33.54 37.1782 33.7644C36.7544 33.9887 36.2475 34.1009 35.6575 34.1009ZM46.6054 30.5982C46.6054 29.9001 46.7425 29.2893 47.0167 28.7658C47.2993 28.2339 47.6857 27.8267 48.176 27.5442C48.6746 27.2533 49.2355 27.1079 49.8588 27.1079C50.507 27.1079 51.0638 27.2574 51.5292 27.5566C52.0029 27.8558 52.3436 28.2381 52.5513 28.7034V27.2076H53.4239V34.0137H52.5513V32.5054C52.3353 32.9707 51.9904 33.3572 51.5167 33.6646C51.0513 33.9638 50.4945 34.1134 49.8463 34.1134C49.2314 34.1134 48.6746 33.968 48.176 33.6771C47.6857 33.3862 47.2993 32.9749 47.0167 32.443C46.7425 31.9112 46.6054 31.2962 46.6054 30.5982ZM52.5513 30.6106C52.5513 30.0622 52.4391 29.5802 52.2148 29.1646C51.9904 28.7491 51.6829 28.4292 51.2923 28.2048C50.9101 27.9804 50.4862 27.8683 50.0209 27.8683C49.5389 27.8683 49.1067 27.9763 48.7245 28.1924C48.3422 28.4084 48.0389 28.7242 47.8145 29.1397C47.5984 29.5469 47.4904 30.0331 47.4904 30.5982C47.4904 31.155 47.5984 31.6453 47.8145 32.0691C48.0389 32.4846 48.3422 32.8045 48.7245 33.0289C49.1067 33.245 49.5389 33.353 50.0209 33.353C50.4862 33.353 50.9101 33.2408 51.2923 33.0164C51.6829 32.7921 51.9904 32.4721 52.2148 32.0566C52.4391 31.6411 52.5513 31.1591 52.5513 30.6106ZM63.1444 24.7893V34.0137H62.2719V24.7893H63.1444ZM78.1342 30.2616C78.1342 30.5608 78.1259 30.7893 78.1093 30.9472H72.4625C72.4874 31.4624 72.6121 31.9029 72.8365 32.2685C73.0608 32.6342 73.3558 32.9126 73.7215 33.1037C74.0871 33.2865 74.486 33.3779 74.9182 33.3779C75.4833 33.3779 75.9569 33.2408 76.3392 32.9666C76.7298 32.6923 76.9874 32.3225 77.1121 31.8572H78.0345C77.8683 32.522 77.511 33.0663 76.9625 33.4901C76.4223 33.9056 75.7409 34.1134 74.9182 34.1134C74.2783 34.1134 73.7049 33.9721 73.1979 33.6896C72.691 33.3987 72.2921 32.9915 72.0013 32.468C71.7187 31.9361 71.5775 31.317 71.5775 30.6106C71.5775 29.9043 71.7187 29.2851 72.0013 28.7533C72.2838 28.2214 72.6786 27.8142 73.1855 27.5317C73.6924 27.2491 74.27 27.1079 74.9182 27.1079C75.5664 27.1079 76.1315 27.2491 76.6135 27.5317C77.1038 27.8142 77.4777 28.1965 77.7353 28.6785C78.0013 29.1522 78.1342 29.6799 78.1342 30.2616ZM77.2492 30.2367C77.2575 29.7297 77.1536 29.2976 76.9376 28.9403C76.7298 28.5829 76.4431 28.3128 76.0774 28.13C75.7118 27.9472 75.3129 27.8558 74.8808 27.8558C74.2326 27.8558 73.6799 28.0635 73.2229 28.4791C72.7658 28.8946 72.5124 29.4804 72.4625 30.2367H77.2492ZM88.9301 34.1134C88.1489 34.1134 87.5091 33.9347 87.0104 33.5774C86.5201 33.2117 86.2459 32.7173 86.1877 32.094H87.0852C87.1268 32.4763 87.3055 32.7879 87.6212 33.0289C87.9453 33.2616 88.3775 33.3779 88.9176 33.3779C89.3913 33.3779 89.7611 33.2658 90.0271 33.0414C90.3013 32.817 90.4384 32.5386 90.4384 32.2062C90.4384 31.9735 90.3636 31.7824 90.214 31.6328C90.0645 31.4832 89.8733 31.3669 89.6406 31.2838C89.4163 31.1923 89.1088 31.0968 88.7182 30.9971C88.2113 30.8641 87.7999 30.7311 87.4841 30.5982C87.1683 30.4652 86.8983 30.2699 86.6739 30.0123C86.4578 29.7464 86.3498 29.3932 86.3498 28.9527C86.3498 28.6203 86.4495 28.3128 86.6489 28.0303C86.8484 27.7478 87.1309 27.5234 87.4966 27.3572C87.8622 27.191 88.2778 27.1079 88.7431 27.1079C89.4744 27.1079 90.0645 27.2948 90.5132 27.6688C90.962 28.0345 91.203 28.5414 91.2362 29.1896H90.3636C90.3387 28.7907 90.1808 28.4707 89.8899 28.2297C89.6074 27.9804 89.2168 27.8558 88.7182 27.8558C88.2778 27.8558 87.9204 27.9597 87.6462 28.1674C87.3719 28.3752 87.2348 28.6328 87.2348 28.9403C87.2348 29.2062 87.3138 29.4264 87.4717 29.6009C87.6379 29.7671 87.8415 29.9001 88.0825 29.9998C88.3235 30.0912 88.6476 30.1951 89.0548 30.3115C89.5451 30.4444 89.9356 30.5732 90.2265 30.6979C90.5174 30.8225 90.7667 31.0054 90.9744 31.2464C91.1822 31.4874 91.2902 31.8073 91.2985 32.2062C91.2985 32.5718 91.1988 32.9001 90.9994 33.191C90.7999 33.4735 90.5215 33.6979 90.1642 33.8641C89.8068 34.0303 89.3955 34.1134 88.9301 34.1134ZM110.946 26.0109V29.2644H114.249V29.9874H110.946V33.2907H114.623V34.0137H110.074V25.2879H114.623V26.0109H110.946ZM126.39 27.0829C127.204 27.0829 127.869 27.3364 128.384 27.8433C128.9 28.3419 129.157 29.0691 129.157 30.0248V34.0137H128.297V30.1245C128.297 29.3849 128.11 28.8198 127.736 28.4292C127.37 28.0386 126.868 27.8433 126.228 27.8433C125.571 27.8433 125.048 28.0511 124.657 28.4666C124.267 28.8821 124.071 29.4929 124.071 30.299V34.0137H123.199V27.2076H124.071V28.3669C124.287 27.9514 124.599 27.6356 125.006 27.4195C125.413 27.1951 125.875 27.0829 126.39 27.0829ZM140.797 27.1079C141.437 27.1079 141.994 27.2574 142.468 27.5566C142.942 27.8558 143.282 28.2339 143.49 28.691V27.2076H144.363V34.1882C144.363 34.8115 144.225 35.3641 143.951 35.8461C143.685 36.3281 143.311 36.6979 142.829 36.9555C142.347 37.2214 141.799 37.3544 141.184 37.3544C140.311 37.3544 139.584 37.1466 139.002 36.7311C138.429 36.3156 138.072 35.7505 137.93 35.0358H138.791C138.94 35.5095 139.223 35.8876 139.638 36.1702C140.062 36.4527 140.577 36.594 141.184 36.594C141.624 36.594 142.019 36.4984 142.368 36.3073C142.717 36.1245 142.991 35.8502 143.191 35.4846C143.39 35.1189 143.49 34.6868 143.49 34.1882V32.5054C143.274 32.9707 142.929 33.3572 142.455 33.6646C141.99 33.9638 141.437 34.1134 140.797 34.1134C140.174 34.1134 139.613 33.968 139.115 33.6771C138.624 33.3862 138.238 32.9749 137.955 32.443C137.681 31.9112 137.544 31.2962 137.544 30.5982C137.544 29.9001 137.681 29.2893 137.955 28.7658C138.238 28.2339 138.624 27.8267 139.115 27.5442C139.613 27.2533 140.174 27.1079 140.797 27.1079ZM143.49 30.6106C143.49 30.0622 143.378 29.5802 143.153 29.1646C142.929 28.7491 142.622 28.4292 142.231 28.2048C141.849 27.9804 141.425 27.8683 140.96 27.8683C140.478 27.8683 140.045 27.9763 139.663 28.1924C139.281 28.4084 138.978 28.7242 138.753 29.1397C138.537 29.5469 138.429 30.0331 138.429 30.5982C138.429 31.155 138.537 31.6453 138.753 32.0691C138.978 32.4846 139.281 32.8045 139.663 33.0289C140.045 33.245 140.478 33.353 140.96 33.353C141.425 33.353 141.849 33.2408 142.231 33.0164C142.622 32.7921 142.929 32.4721 143.153 32.0566C143.378 31.6411 143.49 31.1591 143.49 30.6106ZM153.647 25.9237C153.472 25.9237 153.323 25.8613 153.198 25.7367C153.073 25.612 153.011 25.4583 153.011 25.2755C153.011 25.0926 153.073 24.943 153.198 24.8267C153.323 24.7021 153.472 24.6397 153.647 24.6397C153.821 24.6397 153.971 24.7021 154.096 24.8267C154.22 24.943 154.283 25.0926 154.283 25.2755C154.283 25.4583 154.22 25.612 154.096 25.7367C153.971 25.8613 153.821 25.9237 153.647 25.9237ZM154.083 27.2076V34.0137H153.211V27.2076H154.083ZM166.106 27.0829C166.921 27.0829 167.585 27.3364 168.101 27.8433C168.616 28.3419 168.873 29.0691 168.873 30.0248V34.0137H168.013V30.1245C168.013 29.3849 167.826 28.8198 167.452 28.4292C167.087 28.0386 166.584 27.8433 165.944 27.8433C165.288 27.8433 164.764 28.0511 164.373 28.4666C163.983 28.8821 163.788 29.4929 163.788 30.299V34.0137H162.915V27.2076H163.788V28.3669C164.004 27.9514 164.315 27.6356 164.722 27.4195C165.13 27.1951 165.591 27.0829 166.106 27.0829ZM183.817 30.2616C183.817 30.5608 183.809 30.7893 183.792 30.9472H178.145C178.17 31.4624 178.295 31.9029 178.519 32.2685C178.744 32.6342 179.039 32.9126 179.404 33.1037C179.77 33.2865 180.169 33.3779 180.601 33.3779C181.166 33.3779 181.64 33.2408 182.022 32.9666C182.413 32.6923 182.67 32.3225 182.795 31.8572H183.717C183.551 32.522 183.194 33.0663 182.645 33.4901C182.105 33.9056 181.424 34.1134 180.601 34.1134C179.961 34.1134 179.388 33.9721 178.881 33.6896C178.374 33.3987 177.975 32.9915 177.684 32.468C177.402 31.9361 177.26 31.317 177.26 30.6106C177.26 29.9043 177.402 29.2851 177.684 28.7533C177.967 28.2214 178.361 27.8142 178.868 27.5317C179.375 27.2491 179.953 27.1079 180.601 27.1079C181.249 27.1079 181.814 27.2491 182.296 27.5317C182.787 27.8142 183.161 28.1965 183.418 28.6785C183.684 29.1522 183.817 29.6799 183.817 30.2616ZM182.932 30.2367C182.94 29.7297 182.836 29.2976 182.62 28.9403C182.413 28.5829 182.126 28.3128 181.76 28.13C181.395 27.9472 180.996 27.8558 180.564 27.8558C179.915 27.8558 179.363 28.0635 178.906 28.4791C178.449 28.8946 178.195 29.4804 178.145 30.2367H182.932Z" fill="#8B8B8B"/>
<defs>
<linearGradient id="paint0_linear_13_7587" x1="0" y1="11.4061" x2="20.011" y2="11.4061" gradientUnits="userSpaceOnUse">
<stop stop-color="#395299"/>
<stop offset="1" stop-color="#34B1E2"/>
</linearGradient>
<linearGradient id="paint1_linear_13_7587" x1="32.0176" y1="8.47551" x2="178.171" y2="8.47551" gradientUnits="userSpaceOnUse">
<stop stop-color="#34B1E2"/>
<stop offset="1" stop-color="#395299"/>
</linearGradient>
</defs>
</svg>
