<svg width="14" height="14" viewBox="0 0 14 14" fill="none" xmlns="http://www.w3.org/2000/svg">
<path d="M13.33 12.4969C13.33 12.9579 12.9579 13.33 12.4969 13.33H0.833125C0.372129 13.33 0 12.9579 0 12.4969C0 12.0359 0.372129 11.6637 0.833125 11.6637H12.4969C12.9579 11.6637 13.33 12.0359 13.33 12.4969ZM1.6607 6.52059C1.1275 5.98739 0.966425 5.18759 1.25524 4.48777C1.54406 3.78794 2.22167 3.3325 2.97703 3.3325H3.88792V1.94396C3.88792 0.872004 4.75992 0 5.83187 0H7.49812C8.57008 0 9.44208 0.872004 9.44208 1.94396V3.3325H10.353C11.1139 3.3325 11.7859 3.7935 12.0748 4.48777C12.3636 5.18759 12.2025 5.98739 11.6693 6.52059L8.35347 9.84754C7.88692 10.3141 7.27596 10.5418 6.665 10.5418C6.05404 10.5418 5.44308 10.3085 4.97653 9.84754L1.6607 6.52059ZM2.83818 5.34311L6.15957 8.67561C6.43728 8.95332 6.89272 8.95332 7.17598 8.67561L10.4918 5.34311C10.5585 5.27646 10.5696 5.20425 10.5363 5.12094C10.5029 5.03763 10.4418 4.9932 10.3474 4.9932H8.60896C8.14796 4.9932 7.77583 4.62107 7.77583 4.16007V1.94396C7.77583 1.794 7.64809 1.66625 7.49812 1.66625H5.83187C5.67636 1.66625 5.55417 1.78844 5.55417 1.94396V4.16562C5.55417 4.62662 5.18204 4.99875 4.72104 4.99875H2.97703C2.88817 4.99875 2.82707 5.04318 2.79375 5.1265C2.76042 5.20981 2.77153 5.28201 2.83818 5.34866V5.34311Z" fill="#5A5A5A"/>
</svg>
